<svg version="1.1" id="Layer_1" xmlns="http://www.w3.org/2000/svg" xmlns:xlink="http://www.w3.org/1999/xlink" x="0px" y="0px"
	 width="100%" viewBox="0 0 500 500" enable-background="new 0 0 500 500" xml:space="preserve">
<path fill="#000000" opacity="1.000000" stroke="none" 
	d="
M330.000000,501.000000 
	C220.000031,501.000000 110.500053,501.000000 1.000059,501.000000 
	C1.000039,334.333405 1.000039,167.666794 1.000020,1.000148 
	C167.666565,1.000099 334.333130,1.000099 500.999756,1.000049 
	C500.999847,167.666519 500.999847,334.333038 500.999939,500.999786 
	C444.166656,501.000000 387.333344,501.000000 330.000000,501.000000 
M406.207367,90.878197 
	C405.814026,91.262299 405.420654,91.646400 404.445892,92.127792 
	C403.804108,92.573051 403.162354,93.018303 402.014557,93.736191 
	C401.580109,94.093895 401.145660,94.451591 400.187317,95.166817 
	C399.401611,95.780220 398.615936,96.393623 397.126740,97.024391 
	C388.397858,102.334251 379.668976,107.644112 370.340881,112.997810 
	C369.905518,113.350037 369.470154,113.702263 368.347900,114.215805 
	C349.182892,126.046211 330.026794,137.891159 310.849945,149.702332 
	C296.056335,158.813797 281.236633,167.882858 266.013275,177.451218 
	C263.043243,179.279541 260.073212,181.107880 256.350647,182.844742 
	C245.937836,189.229919 235.525040,195.615082 225.042786,201.991440 
	C225.042786,201.991440 225.036896,202.061203 224.340302,202.176208 
	C220.961349,204.470978 217.582397,206.765732 213.756119,209.493851 
	C213.637329,209.664108 213.518524,209.834366 213.199844,209.881882 
	C213.081329,210.172836 212.962799,210.463791 212.298813,211.010315 
	C212.204178,211.187408 212.109543,211.364502 211.796051,211.895615 
	C209.094391,216.188736 206.392746,220.481873 203.738556,224.872559 
	C203.738556,224.872559 203.751465,224.764832 203.149872,225.077103 
	C199.775223,231.144196 196.400574,237.211304 192.499115,243.601273 
	C192.001038,244.739639 191.502945,245.878006 190.628738,247.222610 
	C190.364807,247.396698 190.239471,247.641678 189.817215,248.519028 
	C188.406113,251.224991 186.995010,253.930939 185.591629,256.666412 
	C185.591629,256.666412 185.620605,256.675903 185.018982,256.981842 
	C182.432312,261.596680 179.845657,266.211517 177.047150,270.983154 
	C177.047150,270.983154 177.063354,271.246216 176.535461,271.648132 
	C171.392807,280.779388 166.250168,289.910675 161.019623,299.080017 
	C161.019623,299.080017 161.058990,299.167358 160.572647,299.607941 
	C156.645248,306.697052 152.717850,313.786194 148.846054,320.932037 
	C148.846054,320.932037 148.856415,320.853271 148.264816,321.088715 
	C147.332474,322.712341 146.400131,324.335999 145.075958,326.415009 
	C145.049713,326.613525 145.023468,326.812073 145.008820,327.003540 
	C145.008820,327.003540 145.006989,326.989685 144.443008,327.383820 
	C140.687408,334.178772 136.931824,340.973724 132.999161,348.502563 
	C129.009827,355.332397 125.020508,362.162231 120.332840,369.093353 
	C113.386070,380.876251 106.439308,392.659180 99.153877,404.749939 
	C98.970413,405.165863 98.786949,405.581787 98.088165,406.536285 
	C97.655769,407.938873 96.983017,409.316833 96.836525,410.748688 
	C96.414848,414.870361 99.098061,417.321747 102.411789,418.400360 
	C103.762650,418.840057 105.902405,416.856018 108.224884,415.542480 
	C109.828636,414.676086 111.432396,413.809692 113.749153,413.070984 
	C119.874931,409.100159 126.000717,405.129303 132.193481,401.232544 
	C132.193481,401.232544 132.271606,401.170349 132.867020,401.100433 
	C133.225876,400.440887 133.584747,399.781342 134.465454,399.068085 
	C134.633957,399.021332 134.802444,398.974548 135.687744,399.106781 
	C146.807571,392.085785 157.927414,385.064789 169.650284,377.833191 
	C172.261734,375.912445 174.873199,373.991699 178.170532,372.039124 
	C182.140518,369.379761 186.110504,366.720398 190.011139,364.030762 
	C190.011139,364.030762 190.042175,364.100220 190.732285,364.001373 
	C191.887955,363.344116 193.043610,362.686859 194.759628,362.110199 
	C199.505844,359.147522 204.252075,356.184814 209.459930,353.037262 
	C209.459930,353.037262 209.930435,352.876282 210.653046,353.000305 
	C215.431732,349.988342 220.210419,346.976379 224.969330,343.992432 
	C224.969330,343.992432 224.999680,344.008392 225.681442,343.828430 
	C234.149445,338.559875 242.617462,333.291321 251.799377,327.979248 
	C256.069794,324.995911 260.340210,322.012573 265.355164,318.965698 
	C267.876984,317.520020 270.398773,316.074341 273.409241,314.449097 
	C280.242676,310.504425 287.179443,306.725433 293.870544,302.552582 
	C297.849304,300.071228 301.441528,296.969940 305.142731,294.204834 
	C305.142731,294.204834 305.226166,294.181061 305.857147,293.969910 
	C310.979950,285.037384 316.102783,276.104858 321.060638,266.988037 
	C321.060638,266.988037 321.210876,267.182648 321.859802,266.994507 
	C326.868011,258.333374 331.876190,249.672256 337.196503,240.306396 
	C338.574707,237.324280 339.952942,234.342178 341.909424,231.467056 
	C345.685822,225.344940 349.462219,219.222839 353.128754,213.131927 
	C353.128754,213.131927 353.164856,213.240265 353.731049,212.877029 
	C354.284027,211.671036 354.836975,210.465027 355.266510,209.241089 
	C355.266510,209.241089 355.258881,209.365570 355.885406,209.066010 
	C360.460175,201.045898 365.034943,193.025803 369.954132,184.348846 
	C372.354919,180.279541 374.755707,176.210236 377.794922,171.903641 
	C380.173279,167.921860 382.551666,163.940079 384.972443,160.006500 
	C384.972443,160.006500 384.960144,159.943588 385.575684,159.638351 
	C389.062378,153.423538 392.549103,147.208740 395.984222,140.987091 
	C395.984222,140.987091 395.995819,141.037811 396.607727,140.734192 
	C398.233368,137.533142 399.858978,134.332092 402.075714,130.634705 
	C402.190826,130.134003 402.305939,129.633301 403.065125,129.024689 
	C407.810059,120.736404 412.554993,112.448112 417.196167,104.173187 
	C417.196167,104.173187 417.216980,104.275719 417.841888,103.987877 
	C419.344971,101.659821 420.894684,99.360268 422.339844,96.996780 
	C424.325104,93.749809 425.148468,90.543190 421.350647,87.935402 
	C417.908325,85.571724 414.414276,83.939728 411.001801,88.001122 
	C411.001801,88.001122 410.988586,87.972504 410.425110,88.112091 
	C409.803253,88.565491 409.181427,89.018890 408.062317,89.725578 
	C407.623016,90.062576 407.183716,90.399567 406.207367,90.878197 
z"/>
<path fill="#02F5A6" opacity="1.000000" stroke="none" 
	d="
M121.031174,368.992065 
	C125.020508,362.162231 129.009827,355.332397 133.451462,348.197815 
	C136.294403,349.373108 138.685043,350.853149 141.341171,352.497528 
	C141.665176,352.065979 142.660080,351.199310 142.506577,350.873169 
	C141.219666,348.138824 139.721954,345.503662 138.955688,344.079803 
	C141.174911,337.812256 143.090942,332.400970 145.006989,326.989685 
	C145.006989,326.989685 145.008820,327.003540 145.223877,326.923523 
	C145.719437,326.697845 145.978622,326.520966 146.566437,326.198761 
	C147.563065,324.340881 148.209747,322.597076 148.856415,320.853271 
	C148.856415,320.853271 148.846054,320.932037 149.172150,320.888062 
	C155.422104,314.722656 159.905151,307.832794 161.058990,299.167358 
	C161.058990,299.167358 161.019623,299.080017 161.327606,299.126770 
	C163.057495,297.409851 164.479401,295.646118 166.226288,294.015259 
	C170.165176,296.756653 173.821609,299.350311 169.034409,304.817963 
	C175.619263,302.917603 176.415314,298.662750 172.513687,292.228790 
	C170.905045,292.120911 169.350876,292.016693 167.841553,291.545593 
	C169.885376,287.452026 172.035156,283.796356 173.833252,279.975159 
	C175.149384,277.178192 176.003387,274.163727 177.063354,271.246216 
	C177.063354,271.246216 177.047150,270.983154 177.398438,271.107971 
	C179.582962,272.709381 181.047455,273.647675 181.648361,270.096619 
	C182.059433,267.667511 183.244690,265.377716 183.970444,262.991150 
	C184.602966,260.911133 185.076706,258.782867 185.620605,256.675903 
	C185.620605,256.675903 185.591629,256.666412 185.934204,256.677887 
	C187.830154,255.395752 189.383530,254.102142 190.947281,253.181519 
	C190.523682,255.529602 190.089737,257.504669 189.713287,259.218048 
	C193.960388,258.106628 197.893738,257.077301 202.389603,255.900772 
	C200.456802,254.903931 198.985153,253.867462 197.349594,253.370667 
	C195.239365,252.729706 192.998001,252.520462 190.714630,251.851837 
	C190.815887,250.404404 191.015640,249.230423 191.536987,248.084686 
	C194.244751,248.096252 200.453995,243.388779 200.709778,241.276733 
	C200.800781,240.525375 200.723587,239.341599 200.254028,238.999878 
	C196.643005,236.371979 199.344131,234.743042 201.134140,233.300262 
	C201.985977,235.435669 202.786606,237.205185 203.771912,239.382843 
	C207.771866,234.594421 207.554794,233.842056 202.733337,232.664337 
	C203.004028,229.823822 203.377747,227.294327 203.751465,224.764832 
	C203.751465,224.764832 203.738556,224.872559 204.072937,224.815033 
	C207.391174,220.958969 210.397858,217.177429 213.284729,213.306549 
	C213.415375,213.131348 212.462875,212.148346 212.014893,211.541595 
	C212.109543,211.364502 212.204178,211.187408 212.631744,210.810318 
	C213.140442,210.426529 213.285446,210.224640 213.399734,210.004639 
	C213.518524,209.834366 213.637329,209.664108 214.355774,209.299622 
	C215.959549,209.072464 216.963654,209.039520 218.049866,209.359604 
	C218.943100,213.039627 220.263214,215.840561 224.174942,215.962769 
	C224.553650,215.542343 224.932358,215.121918 225.311066,214.701492 
	C223.147980,212.781647 220.984894,210.861816 219.011688,208.641602 
	C221.697601,207.560623 224.193619,206.780014 226.727234,205.987671 
	C226.367661,205.152451 225.702286,203.606827 225.036896,202.061203 
	C225.036896,202.061203 225.042786,201.991440 225.419586,202.020248 
	C226.481796,202.129379 227.167206,202.209702 228.003662,202.530716 
	C228.814896,202.982620 229.475098,203.193832 230.135284,203.405045 
	C230.091278,202.590012 230.047287,201.774994 230.129120,200.765533 
	C230.456711,200.332413 230.693832,200.136551 231.289780,200.120270 
	C232.746124,200.500763 233.879059,200.744537 235.087189,201.320908 
	C236.588898,203.109192 238.015396,204.564896 239.441910,206.020599 
	C239.841507,205.563828 240.241089,205.107056 240.640686,204.650284 
	C240.311325,201.520737 237.872925,200.990082 235.090515,200.701324 
	C236.471329,198.919952 237.748245,197.448624 239.356049,195.855957 
	C244.059952,193.047226 248.432983,190.359848 252.973755,187.912415 
	C257.337280,192.336884 260.201019,191.331299 266.306854,182.991669 
	C264.200134,183.580750 262.173798,184.401199 260.442596,185.635605 
	C258.004761,187.373825 257.238037,186.347504 256.996155,183.703583 
	C257.056091,183.277328 257.079651,183.106766 257.103180,182.936218 
	C260.073212,181.107880 263.043243,179.279541 266.673157,177.268112 
	C268.544342,177.038971 269.755676,176.992935 270.798340,177.228149 
	C269.578674,178.624771 268.527679,179.740143 267.476654,180.855530 
	C267.747925,181.261780 268.019165,181.668045 268.290436,182.074310 
	C269.708496,181.375305 271.126587,180.676285 272.544678,179.977280 
	C272.001740,178.966812 271.458832,177.956345 271.081146,176.646332 
	C274.440765,173.879974 278.569641,173.318329 281.662598,170.214935 
	C285.646851,166.217255 292.907990,166.969742 296.160553,161.279617 
	C296.393280,160.872421 297.371460,160.891357 298.003906,161.176407 
	C297.995605,169.854462 296.644135,171.334747 290.413574,171.271881 
	C287.533295,171.242844 284.642456,172.263474 281.756439,172.808182 
	C281.884552,173.496689 282.012665,174.185196 282.140778,174.873703 
	C284.489380,174.670700 286.838043,174.293793 289.186554,174.294907 
	C299.167664,174.299698 302.775146,171.096039 303.332916,161.013550 
	C307.113678,160.035278 311.058502,159.014557 315.164856,158.146851 
	C315.705048,158.422211 316.083679,158.544571 316.462341,158.666931 
	C316.506775,158.512619 316.551208,158.358322 316.595642,158.204025 
	C316.061127,158.138657 315.526581,158.073273 314.918182,157.682037 
	C313.207367,155.893539 311.570465,154.430923 310.171661,152.723694 
	C313.273712,150.982162 316.137665,149.485245 319.106262,148.076721 
	C319.348358,148.251160 319.485748,148.337204 319.623169,148.423264 
	C319.407104,148.288940 319.191071,148.154633 319.025085,147.647430 
	C319.517181,146.628952 319.812531,145.730057 320.423492,145.376144 
	C328.208282,140.866837 335.993286,136.353485 343.882721,132.031891 
	C346.440247,130.630936 349.301483,129.784363 352.704285,128.409241 
	C352.770233,128.267471 353.013672,126.533188 353.990417,125.854965 
	C358.170502,122.952393 362.636963,120.463539 366.834839,117.584404 
	C367.882385,116.865929 368.317932,115.255150 369.034790,114.054489 
	C369.470154,113.702263 369.905518,113.350037 371.029266,113.016441 
	C373.388214,112.412102 375.413055,112.189857 376.659790,111.087532 
	C379.809570,108.302567 382.762451,108.014915 386.549896,109.888191 
	C389.669250,111.431046 393.220093,112.101562 396.579712,113.158676 
	C394.854248,110.837044 392.723755,109.845810 391.178070,108.278000 
	C390.339569,107.427490 389.950348,105.376228 390.389587,104.279564 
	C390.703522,103.495560 392.731232,103.397881 394.063049,103.351791 
	C395.105255,105.056015 395.848999,106.787178 397.159241,107.569305 
	C397.724396,107.906662 399.461670,106.280449 401.303986,105.157768 
	C399.201447,104.108269 398.058228,103.537613 397.049500,102.671890 
	C397.399384,100.586891 397.614807,98.796959 397.830231,97.007027 
	C398.615936,96.393623 399.401611,95.780220 400.825867,95.017090 
	C401.969574,94.864136 402.474731,94.860901 403.183960,95.093124 
	C407.725189,96.616188 409.875336,94.871758 410.196960,89.797089 
	C410.614166,89.059616 410.801392,88.516060 410.988586,87.972504 
	C410.988586,87.972504 411.001801,88.001122 411.285034,88.098114 
	C411.986237,88.188644 412.404205,88.182175 412.976440,88.259514 
	C413.451538,88.263268 413.772430,88.183205 414.467377,88.113625 
	C422.123260,89.536285 423.074219,91.884689 419.242859,97.890129 
	C418.082397,99.709129 417.865845,102.130333 417.216980,104.275719 
	C417.216980,104.275719 417.196167,104.173187 416.891541,104.224487 
	C413.104401,109.626854 409.468628,114.886642 406.204529,120.367783 
	C404.590057,123.078964 403.660492,126.198067 402.421051,129.132599 
	C402.305939,129.633301 402.190826,130.134003 401.523346,131.049103 
	C399.312592,134.654922 397.654205,137.846359 395.995819,141.037811 
	C395.995819,141.037811 395.984222,140.987091 395.639709,140.972870 
	C394.562103,141.069427 393.829010,141.180222 393.006134,140.925842 
	C392.027710,138.688675 391.139099,136.816696 390.229797,134.901138 
	C384.897461,138.711823 384.969513,142.134232 390.119202,146.419693 
	C389.365814,148.609009 388.585114,150.403366 387.874817,152.225174 
	C386.875885,154.787308 385.929169,157.369797 384.960144,159.943588 
	C384.960144,159.943588 384.972443,160.006500 384.632080,160.153351 
	C378.237213,162.031906 378.761078,167.727707 377.156525,172.140930 
	C374.755707,176.210236 372.354919,180.279541 369.479279,184.783661 
	C366.656158,187.835739 364.307892,190.452988 361.964020,192.707214 
	C363.156067,188.402664 364.343750,184.461166 365.526062,180.537430 
	C360.301025,179.920822 359.721649,180.366577 358.961578,185.476807 
	C358.768066,186.777832 358.500336,188.094406 358.052216,189.325790 
	C356.901184,192.488983 358.563599,193.145569 361.179993,193.376831 
	C361.129059,194.143021 361.091614,194.580292 360.757172,195.093323 
	C358.635986,195.117630 356.811829,195.066162 354.927917,194.800140 
	C354.552582,194.360291 354.237061,194.135040 353.921509,193.909790 
	C353.894897,194.045975 353.807068,194.274399 353.851410,194.303833 
	C354.225494,194.552261 354.623779,194.764328 355.036560,195.339600 
	C356.049774,197.476654 357.041168,199.261414 357.914490,201.381744 
	C356.950562,204.266739 356.104706,206.816147 355.258881,209.365570 
	C355.258881,209.365570 355.266510,209.241089 354.945099,209.267609 
	C354.137421,210.609512 353.651123,211.924896 353.164856,213.240265 
	C353.164856,213.240265 353.128754,213.131927 352.812988,213.142700 
	C352.003845,213.116852 351.510406,213.080261 350.981323,212.745667 
	C350.538269,211.361893 350.130920,210.276093 349.723541,209.190292 
	C348.664368,210.062439 348.498535,210.778625 348.384735,211.502960 
	C348.255402,212.325775 348.172546,213.155899 348.036224,214.249771 
	C341.064209,208.728699 341.064209,208.728699 339.879272,212.209976 
	C342.739319,213.862061 345.492371,215.452332 348.179169,217.398102 
	C345.852325,222.289078 343.591736,226.824570 341.331177,231.360077 
	C339.952942,234.342178 338.574707,237.324280 336.685791,240.679993 
	C333.825470,244.222794 331.103210,247.186050 329.212219,250.608612 
	C326.249939,255.970200 323.849365,261.642151 321.210876,267.182648 
	C321.210876,267.182648 321.060638,266.988037 320.768494,267.091309 
	C319.845306,267.365387 318.897797,267.329468 318.630707,267.738129 
	C314.782593,273.626862 312.648926,280.501190 307.185425,285.548920 
	C305.398865,287.199524 305.816559,291.235809 305.226166,294.181061 
	C305.226166,294.181061 305.142731,294.204834 304.809753,294.188721 
	C294.277252,300.418610 284.070740,306.653290 273.899780,312.945496 
	C273.412720,313.246857 273.239807,314.056000 272.920593,314.628662 
	C270.398773,316.074341 267.876984,317.520020 264.812256,318.818024 
	C263.642914,317.609650 263.016418,316.548981 261.271851,313.595215 
	C259.870544,315.924927 258.942963,317.467041 257.967682,319.036072 
	C257.919952,319.063019 257.990845,318.984436 258.326904,318.971741 
	C259.506683,319.177551 260.350372,319.396057 261.194061,319.614563 
	C261.212097,319.941284 261.230103,320.268005 261.248138,320.594727 
	C257.135223,321.640625 253.022293,322.686523 249.344818,323.621674 
	C249.579468,325.265289 249.771591,326.610992 249.599716,328.001709 
	C246.860123,329.164459 244.432266,330.184448 242.119858,331.420441 
	C237.419907,333.932648 232.782303,336.561523 228.054016,339.074829 
	C227.989029,339.007385 227.853653,338.877899 227.729187,338.606598 
	C226.199158,338.335297 224.793625,338.335297 223.388077,338.335297 
	C223.925278,338.889801 224.462479,339.444336 224.999680,339.998840 
	C224.999680,341.335358 224.999680,342.671875 224.999680,344.008392 
	C224.999680,344.008392 224.969330,343.992432 224.663574,343.831177 
	C218.277512,339.217194 214.090225,339.135284 209.800705,346.163208 
	C210.230942,346.280884 210.661179,346.398560 211.091415,346.516205 
	C210.704422,348.636230 210.317413,350.756256 209.930420,352.876282 
	C209.930435,352.876282 209.459930,353.037262 208.843140,353.098297 
	C203.550659,356.116119 198.874969,359.072876 194.199280,362.029602 
	C193.043610,362.686859 191.887955,363.344116 190.412354,363.696869 
	C190.954590,361.939209 191.816742,360.486053 193.316650,357.958008 
	C189.860092,356.861816 186.928879,355.932220 183.855316,354.685883 
	C182.112244,353.812744 180.511520,353.256348 178.910797,352.699982 
	C178.796936,353.156494 178.683075,353.613007 178.569229,354.069519 
	C180.380493,354.378571 182.191772,354.687622 184.076385,355.340332 
	C186.154907,358.456360 184.574570,363.767181 190.080475,364.061035 
	C186.110504,366.720398 182.140518,369.379761 177.388321,372.026062 
	C165.527786,369.818939 162.466232,372.632050 163.526993,379.968292 
	C160.986450,380.736572 158.588821,381.082275 156.740082,382.277191 
	C151.798279,385.471283 147.021942,388.936859 142.319992,392.480499 
	C139.724716,394.436401 137.411377,396.766388 134.970947,398.927734 
	C134.802444,398.974548 134.633957,399.021332 134.145065,398.797241 
	C132.952652,398.012665 132.080627,397.498932 131.208618,396.985199 
	C131.562943,398.380249 131.917267,399.775299 132.271606,401.170349 
	C132.271606,401.170349 132.193481,401.232544 131.727875,401.113403 
	C122.190102,400.406219 117.088997,405.875305 113.036148,412.943298 
	C111.432396,413.809692 109.828636,414.676086 107.646225,415.906433 
	C103.548790,417.639435 101.851463,415.755402 101.080734,412.700012 
	C100.529953,410.516602 100.349098,408.239899 100.001678,406.002625 
	C100.000168,406.000458 100.006615,406.005585 100.234116,406.079041 
	C100.902023,406.310455 101.342438,406.468384 102.116974,406.783691 
	C103.706131,408.698975 104.961151,410.456909 106.916985,413.196472 
	C108.006706,408.661591 108.862038,405.102081 109.780006,401.281952 
	C108.486557,401.148895 107.188210,401.015320 105.859070,400.498230 
	C110.053032,391.709412 114.277786,383.304169 118.964363,373.980103 
	C121.419266,376.841125 122.773842,378.419800 124.128426,379.998474 
	C124.343323,379.850281 124.558228,379.702087 124.773125,379.553925 
	C123.525810,376.033295 122.278496,372.512665 121.031174,368.992065 
M209.703827,224.941315 
	C210.380905,224.025436 211.057983,223.109573 211.735077,222.193710 
	C211.124023,221.924484 210.512985,221.655273 209.901947,221.386047 
	C209.596725,222.586884 209.291504,223.787735 208.356979,225.270645 
	C207.959244,226.725922 207.561508,228.181198 207.163773,229.636475 
	C207.695602,229.690964 208.227448,229.745453 208.759277,229.799927 
	C208.843597,228.204025 208.927902,226.608109 209.703827,224.941315 
M279.000732,231.998886 
	C279.000732,231.998886 278.984924,232.058304 278.945587,231.340698 
	C276.901672,226.619614 272.698120,225.417664 267.882599,224.059296 
	C263.400452,222.912170 258.957428,221.182632 254.418716,220.877869 
	C252.330719,220.737656 250.055267,223.389404 247.106628,224.823532 
	C242.845337,226.670044 237.583420,226.414307 235.156937,231.881912 
	C232.949356,236.856323 229.857117,241.438141 226.602753,246.445801 
	C225.723969,251.423492 222.690063,256.602997 228.061752,261.641052 
	C228.140671,262.062958 228.219574,262.484863 228.043961,263.603699 
	C225.764374,270.192413 226.408371,274.135620 230.440750,275.454590 
	C230.595612,273.931488 230.739777,272.513580 231.005844,270.975952 
	C231.005844,270.975952 231.121979,270.850586 231.762619,271.072937 
	C232.841797,272.707489 233.920975,274.342010 234.527466,276.420288 
	C231.271866,279.344147 232.543961,281.989655 235.159775,284.372406 
	C237.957291,286.920654 244.544968,286.608795 249.969254,283.865082 
	C253.902847,284.092773 258.173584,283.437317 261.682709,284.776917 
	C265.847992,286.366974 268.849060,285.528168 271.564270,282.871246 
	C275.051056,279.459290 278.563293,276.759857 283.806793,278.373749 
	C283.898041,278.401825 284.157349,277.884003 284.269348,277.721069 
	C283.417542,275.768768 282.596588,273.887115 282.093353,271.363129 
	C282.504211,270.518036 282.915070,269.672943 284.018250,268.865692 
	C285.178314,267.458191 287.234650,266.117218 287.344910,264.631775 
	C287.849640,257.830780 288.099670,250.979568 287.870361,244.165604 
	C287.695709,238.975845 285.447601,234.690811 280.000488,233.000320 
	C280.000488,233.000320 279.998566,233.063202 279.807220,232.568695 
	C279.517914,232.379318 279.228577,232.189941 279.000732,231.998886 
M144.986572,368.195801 
	C144.312668,366.585388 143.638763,364.974976 142.964859,363.364563 
	C141.839630,364.196747 139.875839,364.904663 139.730988,365.882172 
	C139.015594,370.710144 142.991608,368.313812 145.388580,369.592743 
	C146.479736,373.021362 147.570892,376.449982 148.915100,380.673767 
	C152.070740,378.766357 155.849350,376.482422 159.627960,374.198486 
	C159.865082,374.438812 160.102188,374.679169 160.339310,374.919525 
	C161.223312,373.146912 162.107330,371.374268 163.388947,368.804352 
	C161.534561,369.443115 160.199051,369.500397 159.541367,370.197296 
	C156.132843,373.809021 153.093826,373.349121 149.659225,370.115692 
	C148.650192,369.165741 146.575775,369.347443 144.986572,368.195801 
M147.723938,335.798584 
	C152.445694,334.157532 155.394913,331.435211 155.771790,325.891235 
	C155.931580,323.540680 158.385529,321.346100 160.288376,318.291504 
	C159.867889,317.799347 158.744751,316.484741 158.042923,315.663300 
	C153.972168,321.803345 150.265900,327.446747 146.496506,333.047638 
	C145.329529,334.781616 145.250916,334.728699 147.723938,335.798584 
M270.846588,211.624695 
	C265.927582,214.576797 261.145630,217.338486 255.538925,212.564713 
	C254.589462,211.756317 251.869949,213.026810 249.968246,213.336838 
	C252.085266,215.142883 254.313644,215.413879 256.075256,216.466232 
	C261.945007,219.972717 266.898621,217.253204 271.832306,214.435532 
	C272.135712,214.262238 271.591217,212.604279 270.846588,211.624695 
M407.746857,112.554253 
	C408.388214,109.357437 409.212067,106.178680 409.531464,102.950012 
	C409.603516,102.221825 407.917725,101.319748 407.041168,100.497734 
	C406.410919,101.696548 405.160156,102.957291 405.272400,104.081993 
	C405.554230,106.906487 406.452240,109.669495 407.746857,112.554253 
M418.021027,91.966721 
	C415.474731,94.042686 412.928436,96.118652 410.117554,98.410324 
	C411.620026,99.990356 412.758484,101.187584 414.518555,103.038475 
	C416.074036,98.820915 417.292419,95.517326 418.021027,91.966721 
M222.267365,224.155045 
	C220.311768,221.845932 218.445480,219.445282 216.289322,217.341721 
	C216.014877,217.073959 214.225784,218.358704 212.105453,219.461411 
	C216.104721,221.593201 218.922607,223.095261 222.267365,224.155045 
M261.729706,305.997589 
	C260.288391,308.003143 256.398102,308.717468 257.772003,313.087036 
	C260.132355,311.482483 261.883453,310.345612 263.573242,309.123871 
	C264.630066,308.359772 265.594543,307.467926 266.600433,306.633392 
	C265.185425,306.291382 263.770447,305.949371 261.729706,305.997589 
M282.548279,284.034088 
	C281.793304,285.333344 281.038330,286.632599 279.985779,288.443939 
	C286.049286,287.443146 288.533966,284.492096 287.971985,279.360107 
	C286.196350,280.863708 284.619263,282.199188 282.548279,284.034088 
M208.881042,243.248703 
	C208.187256,241.366135 206.769302,239.378448 205.539398,242.194611 
	C204.372925,244.865494 203.985718,248.555603 208.950180,250.287659 
	C208.950180,247.853149 208.950180,245.930481 208.881042,243.248703 
M226.352280,332.570892 
	C226.862015,333.360626 227.670105,334.892944 227.835815,334.826355 
	C229.696625,334.078766 231.535217,333.196411 233.181412,332.062347 
	C233.504120,331.839996 232.979538,330.387726 232.845764,329.502747 
	C231.640778,329.785736 230.375824,329.925659 229.250061,330.397614 
	C228.368652,330.767120 227.659698,331.548004 226.352280,332.570892 
M340.908661,217.743835 
	C336.922913,219.910233 335.717590,226.148392 338.347504,229.883530 
	C339.309753,226.100891 340.315186,222.148560 340.908661,217.743835 
M344.527191,138.198807 
	C348.167328,140.627655 350.648132,139.546341 352.655273,133.595139 
	C349.436859,135.139816 346.960358,136.328415 344.527191,138.198807 
M313.720551,262.972900 
	C314.875244,263.449097 316.029968,263.925262 317.184662,264.401459 
	C317.759338,262.712189 318.334015,261.022888 318.908691,259.333618 
	C318.348145,259.077454 317.787628,258.821320 317.227112,258.565186 
	C316.129272,259.826508 315.031433,261.087860 313.720551,262.972900 
M275.878540,282.493652 
	C274.914825,284.202301 273.951080,285.910950 272.987366,287.619598 
	C273.346497,287.863068 273.705627,288.106537 274.064758,288.350037 
	C275.463654,287.036499 277.158813,285.917877 278.184326,284.358734 
	C279.389160,282.527069 279.088440,281.064392 275.878540,282.493652 
M401.383392,101.498520 
	C401.695587,101.688560 402.007751,101.878601 402.319946,102.068634 
	C402.397247,101.795624 402.474518,101.522614 402.551819,101.249603 
	C402.197174,101.199356 401.842529,101.149109 401.383392,101.498520 
M112.677254,396.748138 
	C112.591095,396.559875 112.504936,396.371643 112.418785,396.183380 
	C112.432205,396.405273 112.445625,396.627136 112.677254,396.748138 
M110.503563,398.530792 
	C110.503563,398.530792 110.484581,398.484924 110.503563,398.530792 
M112.496880,399.468445 
	C112.496880,399.468445 112.515121,399.514709 112.496880,399.468445 
M288.486633,268.478851 
	C288.486633,268.478851 288.496277,268.510803 288.486633,268.478851 
z"/>
<path fill="#45D89E" opacity="1.000000" stroke="none" 
	d="
M298.003052,160.712173 
	C297.371460,160.891357 296.393280,160.872421 296.160553,161.279617 
	C292.907990,166.969742 285.646851,166.217255 281.662598,170.214935 
	C278.569641,173.318329 274.440765,173.879974 271.096680,176.676666 
	C270.946991,177.006577 270.966980,176.946915 270.966980,176.946899 
	C269.755676,176.992935 268.544342,177.038971 266.880768,177.027893 
	C281.236633,167.882858 296.056335,158.813797 310.849945,149.702332 
	C330.026794,137.891159 349.182892,126.046211 368.691345,114.135147 
	C368.317932,115.255150 367.882385,116.865929 366.834839,117.584404 
	C362.636963,120.463539 358.170502,122.952393 353.990417,125.854965 
	C353.013672,126.533188 352.770233,128.267471 352.704285,128.409241 
	C349.301483,129.784363 346.440247,130.630936 343.882721,132.031891 
	C335.993286,136.353485 328.208282,140.866837 320.423492,145.376144 
	C319.812531,145.730057 319.517181,146.628952 319.033875,147.640198 
	C318.992584,148.005859 319.001587,147.988327 319.001587,147.988327 
	C316.137665,149.485245 313.273712,150.982162 309.855652,152.878128 
	C305.535339,155.755493 301.769196,158.233826 298.003052,160.712173 
z"/>
<path fill="#36E2A1" opacity="1.000000" stroke="none" 
	d="
M397.478485,97.015709 
	C397.614807,98.796959 397.399384,100.586891 396.686035,102.669739 
	C395.456818,102.973091 394.725555,102.983528 393.994263,102.993958 
	C392.731232,103.397881 390.703522,103.495560 390.389587,104.279564 
	C389.950348,105.376228 390.339569,107.427490 391.178070,108.278000 
	C392.723755,109.845810 394.854248,110.837044 396.579712,113.158676 
	C393.220093,112.101562 389.669250,111.431046 386.549896,109.888191 
	C382.762451,108.014915 379.809570,108.302567 376.659790,111.087532 
	C375.413055,112.189857 373.388214,112.412102 371.328888,112.994522 
	C379.668976,107.644112 388.397858,102.334251 397.478485,97.015709 
z"/>
<path fill="#45D89E" opacity="1.000000" stroke="none" 
	d="
M120.682007,369.042725 
	C122.278496,372.512665 123.525810,376.033295 124.773125,379.553925 
	C124.558228,379.702087 124.343323,379.850281 124.128426,379.998474 
	C122.773842,378.419800 121.419266,376.841125 118.964363,373.980103 
	C114.277786,383.304169 110.053032,391.709412 105.869095,400.521606 
	C105.909920,400.928558 105.956070,400.945679 105.606705,400.914795 
	C104.559937,400.954407 103.862518,401.024902 102.925827,401.307800 
	C102.448013,402.319763 102.209473,403.119385 101.910614,404.159607 
	C101.850304,404.400208 101.741966,404.884338 101.457527,404.912018 
	C100.791382,404.968994 100.409668,404.998322 99.895729,404.879761 
	C99.763496,404.731903 99.492538,404.442078 99.492538,404.442078 
	C106.439308,392.659180 113.386070,380.876251 120.682007,369.042725 
z"/>
<path fill="#25F3A6" opacity="1.000000" stroke="none" 
	d="
M210.291733,352.938293 
	C210.317413,350.756256 210.704422,348.636230 211.091415,346.516205 
	C210.661179,346.398560 210.230942,346.280884 209.800705,346.163208 
	C214.090225,339.135284 218.277512,339.217194 224.673462,343.817200 
	C220.210419,346.976379 215.431732,349.988342 210.291733,352.938293 
z"/>
<path fill="#45D89E" opacity="1.000000" stroke="none" 
	d="
M135.329346,399.017242 
	C137.411377,396.766388 139.724716,394.436401 142.319992,392.480499 
	C147.021942,388.936859 151.798279,385.471283 156.740082,382.277191 
	C158.588821,381.082275 160.986450,380.736572 163.846222,379.826050 
	C166.054825,379.113525 167.551041,378.578644 169.047241,378.043793 
	C157.927414,385.064789 146.807571,392.085785 135.329346,399.017242 
z"/>
<path fill="#36E2A1" opacity="1.000000" stroke="none" 
	d="
M203.450668,224.920959 
	C203.377747,227.294327 203.004028,229.823822 202.442703,232.654846 
	C201.864380,232.949051 201.473648,232.941727 201.082932,232.934387 
	C199.344131,234.743042 196.643005,236.371979 200.254028,238.999878 
	C200.723587,239.341599 200.800781,240.525375 200.709778,241.276733 
	C200.453995,243.388779 194.244751,248.096252 191.296082,248.057861 
	C190.733582,248.002838 190.252747,247.957550 190.252747,247.957550 
	C190.239471,247.641678 190.364807,247.396698 191.122162,246.994568 
	C192.085693,245.603806 192.555817,244.441101 193.025925,243.278397 
	C196.400574,237.211304 199.775223,231.144196 203.450668,224.920959 
z"/>
<path fill="#36E2A1" opacity="1.000000" stroke="none" 
	d="
M144.725006,327.186768 
	C143.090942,332.400970 141.174911,337.812256 138.955688,344.079803 
	C139.721954,345.503662 141.219666,348.138824 142.506577,350.873169 
	C142.660080,351.199310 141.665176,352.065979 141.341171,352.497528 
	C138.685043,350.853149 136.294403,349.373108 133.539993,347.830902 
	C136.931824,340.973724 140.687408,334.178772 144.725006,327.186768 
z"/>
<path fill="#45D89E" opacity="1.000000" stroke="none" 
	d="
M305.541656,294.075500 
	C305.816559,291.235809 305.398865,287.199524 307.185425,285.548920 
	C312.648926,280.501190 314.782593,273.626862 318.630707,267.738129 
	C318.897797,267.329468 319.845306,267.365387 320.851013,267.183472 
	C316.102783,276.104858 310.979950,285.037384 305.541656,294.075500 
z"/>
<path fill="#45D89E" opacity="1.000000" stroke="none" 
	d="
M273.164917,314.538879 
	C273.239807,314.056000 273.412720,313.246857 273.899780,312.945496 
	C284.070740,306.653290 294.277252,300.418610 304.842163,294.160004 
	C301.441528,296.969940 297.849304,300.071228 293.870544,302.552582 
	C287.179443,306.725433 280.242676,310.504425 273.164917,314.538879 
z"/>
<path fill="#45D89E" opacity="1.000000" stroke="none" 
	d="
M228.119003,339.142303 
	C232.782303,336.561523 237.419907,333.932648 242.119858,331.420441 
	C244.432266,330.184448 246.860123,329.164459 249.880112,328.020996 
	C250.711472,328.004456 250.898468,328.013611 251.085480,328.022797 
	C242.617462,333.291321 234.149445,338.559875 225.340561,343.918396 
	C224.999680,342.671875 224.999680,341.335358 224.999680,339.998840 
	C224.462479,339.444336 223.925278,338.889801 223.388077,338.335297 
	C224.793625,338.335297 226.199158,338.335297 227.648987,338.685272 
	C227.693268,339.035248 227.765762,339.388336 227.765762,339.388336 
	C227.765762,339.388336 228.119003,339.142303 228.119003,339.142303 
z"/>
<path fill="#45D89E" opacity="1.000000" stroke="none" 
	d="
M230.966354,199.983536 
	C230.693832,200.136551 230.456711,200.332413 229.851349,200.913757 
	C228.916031,201.600922 228.384323,201.945480 227.852631,202.290024 
	C227.167206,202.209702 226.481796,202.129379 225.454315,202.024658 
	C235.525040,195.615082 245.937836,189.229919 256.726929,182.890472 
	C257.079651,183.106766 257.056091,183.277328 256.727783,183.877808 
	C255.217346,185.429306 254.011688,186.550888 252.806030,187.672455 
	C248.432983,190.359848 244.059952,193.047226 238.994995,195.876297 
	C235.857513,197.339828 233.411942,198.661682 230.966354,199.983536 
z"/>
<path fill="#36E2A1" opacity="1.000000" stroke="none" 
	d="
M113.392654,413.007141 
	C117.088997,405.875305 122.190102,400.406219 131.694366,401.076385 
	C126.000717,405.129303 119.874931,409.100159 113.392654,413.007141 
z"/>
<path fill="#45D89E" opacity="1.000000" stroke="none" 
	d="
M321.535339,267.088562 
	C323.849365,261.642151 326.249939,255.970200 329.212219,250.608612 
	C331.103210,247.186050 333.825470,244.222794 336.529724,241.032379 
	C331.876190,249.672256 326.868011,258.333374 321.535339,267.088562 
z"/>
<path fill="#36E2A1" opacity="1.000000" stroke="none" 
	d="
M251.442429,328.001038 
	C250.898468,328.013611 250.711472,328.004456 250.244095,327.976013 
	C249.771591,326.610992 249.579468,325.265289 249.344818,323.621674 
	C253.022293,322.686523 257.135223,321.640625 261.248138,320.594727 
	C261.230103,320.268005 261.212097,319.941284 261.194061,319.614563 
	C260.350372,319.396057 259.506683,319.177551 258.331787,318.979187 
	C258.000610,318.999298 258.015442,319.009186 258.015442,319.009155 
	C258.942963,317.467041 259.870544,315.924927 261.271851,313.595215 
	C263.016418,316.548981 263.642914,317.609650 264.440002,318.849792 
	C260.340210,322.012573 256.069794,324.995911 251.442429,328.001038 
z"/>
<path fill="#45D89E" opacity="1.000000" stroke="none" 
	d="
M355.572144,209.215790 
	C356.104706,206.816147 356.950562,204.266739 358.195404,201.184769 
	C359.414337,198.774002 360.234253,196.895767 361.054199,195.017548 
	C361.091614,194.580292 361.129059,194.143021 361.370209,193.390533 
	C361.573914,193.075287 361.959625,193.070251 361.959625,193.070251 
	C364.307892,190.452988 366.656158,187.835739 369.307068,185.112091 
	C365.034943,193.025803 360.460175,201.045898 355.572144,209.215790 
z"/>
<path fill="#45D89E" opacity="1.000000" stroke="none" 
	d="
M412.822205,88.175705 
	C412.404205,88.182175 411.986237,88.188644 411.272217,88.089188 
	C414.414276,83.939728 417.908325,85.571724 421.350647,87.935402 
	C425.148468,90.543190 424.325104,93.749809 422.339844,96.996780 
	C420.894684,99.360268 419.344971,101.659821 417.529419,104.131798 
	C417.865845,102.130333 418.082397,99.709129 419.242859,97.890129 
	C423.074219,91.884689 422.123260,89.536285 414.148682,88.119354 
	C413.244690,88.134987 413.033447,88.155350 412.822205,88.175705 
z"/>
<path fill="#1DF3A5" opacity="1.000000" stroke="none" 
	d="
M169.348755,377.938477 
	C167.551041,378.578644 166.054825,379.113525 164.239410,379.790649 
	C162.466232,372.632050 165.527786,369.818939 177.045380,372.041992 
	C174.873199,373.991699 172.261734,375.912445 169.348755,377.938477 
z"/>
<path fill="#45D89E" opacity="1.000000" stroke="none" 
	d="
M176.799408,271.447174 
	C176.003387,274.163727 175.149384,277.178192 173.833252,279.975159 
	C172.035156,283.796356 169.885376,287.452026 167.628082,291.714966 
	C166.880280,292.794952 166.390793,293.338684 165.901306,293.882385 
	C164.479401,295.646118 163.057495,297.409851 161.371552,299.107727 
	C166.250168,289.910675 171.392807,280.779388 176.799408,271.447174 
z"/>
<path fill="#45D89E" opacity="1.000000" stroke="none" 
	d="
M160.815826,299.387634 
	C159.905151,307.832794 155.422104,314.722656 149.144348,320.859711 
	C152.717850,313.786194 156.645248,306.697052 160.815826,299.387634 
z"/>
<path fill="#45D89E" opacity="1.000000" stroke="none" 
	d="
M402.743103,129.078644 
	C403.660492,126.198067 404.590057,123.078964 406.204529,120.367783 
	C409.468628,114.886642 413.104401,109.626854 416.943420,104.217804 
	C412.554993,112.448112 407.810059,120.736404 402.743103,129.078644 
z"/>
<path fill="#36E2A1" opacity="1.000000" stroke="none" 
	d="
M100.003181,406.004822 
	C100.349098,408.239899 100.529953,410.516602 101.080734,412.700012 
	C101.851463,415.755402 103.548790,417.639435 107.375397,416.122528 
	C105.902405,416.856018 103.762650,418.840057 102.411789,418.400360 
	C99.098061,417.321747 96.414848,414.870361 96.836525,410.748688 
	C96.983017,409.316833 97.655769,407.938873 98.577713,406.273407 
	C99.379227,406.006989 99.691200,406.005066 100.003181,406.004822 
z"/>
<path fill="#45D89E" opacity="1.000000" stroke="none" 
	d="
M351.016998,213.043655 
	C351.510406,213.080261 352.003845,213.116852 352.867920,213.127106 
	C349.462219,219.222839 345.685822,225.344940 341.620300,231.413559 
	C343.591736,226.824570 345.852325,222.289078 348.467957,217.282745 
	C349.554291,215.555832 350.285645,214.299744 351.016998,213.043655 
z"/>
<path fill="#45D89E" opacity="1.000000" stroke="none" 
	d="
M185.319794,256.828857 
	C185.076706,258.782867 184.602966,260.911133 183.970444,262.991150 
	C183.244690,265.377716 182.059433,267.667511 181.648361,270.096619 
	C181.047455,273.647675 179.582962,272.709381 177.504364,271.029572 
	C179.845657,266.211517 182.432312,261.596680 185.319794,256.828857 
z"/>
<path fill="#45D89E" opacity="1.000000" stroke="none" 
	d="
M385.267914,159.790970 
	C385.929169,157.369797 386.875885,154.787308 387.874817,152.225174 
	C388.585114,150.403366 389.365814,148.609009 390.418518,146.262146 
	C391.513306,144.244934 392.304626,142.767975 393.095947,141.291016 
	C393.829010,141.180222 394.562103,141.069427 395.665466,140.976288 
	C392.549103,147.208740 389.062378,153.423538 385.267914,159.790970 
z"/>
<path fill="#45D89E" opacity="1.000000" stroke="none" 
	d="
M194.479462,362.069916 
	C198.874969,359.072876 203.550659,356.116119 208.612320,353.190735 
	C204.252075,356.184814 199.505844,359.147522 194.479462,362.069916 
z"/>
<path fill="#45D89E" opacity="1.000000" stroke="none" 
	d="
M224.688599,202.118713 
	C225.702286,203.606827 226.367661,205.152451 226.727234,205.987671 
	C224.193619,206.780014 221.697601,207.560623 218.798309,208.647919 
	C218.395050,208.954636 217.967773,209.006577 217.967773,209.006577 
	C216.963654,209.039520 215.959549,209.072464 214.579437,209.082947 
	C217.582397,206.765732 220.961349,204.470978 224.688599,202.118713 
z"/>
<path fill="#36E2A1" opacity="1.000000" stroke="none" 
	d="
M211.905472,211.718597 
	C212.462875,212.148346 213.415375,213.131348 213.284729,213.306549 
	C210.397858,217.177429 207.391174,220.958969 204.049210,224.766266 
	C206.392746,220.481873 209.094391,216.188736 211.905472,211.718597 
z"/>
<path fill="#36E2A1" opacity="1.000000" stroke="none" 
	d="
M377.475708,172.022278 
	C378.761078,167.727707 378.237213,162.031906 384.610901,160.129257 
	C382.551666,163.940079 380.173279,167.921860 377.475708,172.022278 
z"/>
<path fill="#45D89E" opacity="1.000000" stroke="none" 
	d="
M396.301758,140.886002 
	C397.654205,137.846359 399.312592,134.654922 401.227783,131.297272 
	C399.858978,134.332092 398.233368,137.533142 396.301758,140.886002 
z"/>
<path fill="#45D89E" opacity="1.000000" stroke="none" 
	d="
M190.034973,248.238281 
	C190.252747,247.957550 190.733582,248.002838 190.974487,248.029648 
	C191.015640,249.230423 190.815887,250.404404 190.746506,252.022263 
	C190.876877,252.466156 190.936920,252.808548 190.936920,252.808533 
	C189.383530,254.102142 187.830154,255.395752 185.930344,256.663147 
	C186.995010,253.930939 188.406113,251.224991 190.034973,248.238281 
z"/>
<path fill="#36E2A1" opacity="1.000000" stroke="none" 
	d="
M132.569305,401.135376 
	C131.917267,399.775299 131.562943,398.380249 131.208618,396.985199 
	C132.080627,397.498932 132.952652,398.012665 133.884140,398.824097 
	C133.584747,399.781342 133.225876,400.440887 132.569305,401.135376 
z"/>
<path fill="#45D89E" opacity="1.000000" stroke="none" 
	d="
M148.560623,320.971008 
	C148.209747,322.597076 147.563065,324.340881 146.380783,326.105042 
	C145.845184,326.125366 145.467773,325.959625 145.467773,325.959625 
	C146.400131,324.335999 147.332474,322.712341 148.560623,320.971008 
z"/>
<path fill="#45D89E" opacity="1.000000" stroke="none" 
	d="
M353.447937,213.058655 
	C353.651123,211.924896 354.137421,210.609512 355.006836,209.276581 
	C354.836975,210.465027 354.284027,211.671036 353.447937,213.058655 
z"/>
<path fill="#45D89E" opacity="1.000000" stroke="none" 
	d="
M192.762512,243.439835 
	C192.555817,244.441101 192.085693,245.603806 191.310211,246.891449 
	C191.502945,245.878006 192.001038,244.739639 192.762512,243.439835 
z"/>
<path fill="#45D89E" opacity="1.000000" stroke="none" 
	d="
M402.520599,93.463570 
	C403.162354,93.018303 403.804108,92.573051 404.773407,92.117889 
	C405.100922,92.107986 405.174316,92.185616 405.041565,92.450592 
	C404.276489,93.147270 403.644196,93.578979 402.891052,93.872131 
	C402.770203,93.733574 402.520599,93.463577 402.520599,93.463570 
z"/>
<path fill="#45D89E" opacity="1.000000" stroke="none" 
	d="
M410.706848,88.042297 
	C410.801392,88.516060 410.614166,89.059616 409.956604,89.798004 
	C409.486237,89.992836 409.005249,90.009468 408.894897,89.874306 
	C408.784515,89.739143 408.559570,89.472282 408.559570,89.472290 
	C409.181427,89.018890 409.803253,88.565491 410.706848,88.042297 
z"/>
<path fill="#36E2A1" opacity="1.000000" stroke="none" 
	d="
M213.299789,209.943268 
	C213.285446,210.224640 213.140442,210.426529 212.904480,210.682541 
	C212.962799,210.463791 213.081329,210.172836 213.299789,209.943268 
z"/>
<path fill="#45D89E" opacity="1.000000" stroke="none" 
	d="
M405.064117,92.069244 
	C405.420654,91.646400 405.814026,91.262299 406.554871,90.893326 
	C406.902405,90.908463 407.055298,91.084969 406.848572,91.265991 
	C406.152649,91.693207 405.663483,91.939407 405.174316,92.185608 
	C405.174316,92.185616 405.100922,92.107986 405.064117,92.069244 
z"/>
<path fill="#45D89E" opacity="1.000000" stroke="none" 
	d="
M100.001678,406.002625 
	C99.691200,406.005066 99.379227,406.006989 98.835373,406.004120 
	C98.786949,405.581787 98.970413,405.165863 99.323212,404.596008 
	C99.492538,404.442078 99.763496,404.731903 99.886841,405.124023 
	C100.010193,405.516144 100.006615,406.005585 100.006615,406.005585 
	C100.006615,406.005585 100.000168,406.000458 100.001678,406.002625 
z"/>
<path fill="#45D89E" opacity="1.000000" stroke="none" 
	d="
M402.979858,94.857666 
	C402.474731,94.860901 401.969574,94.864136 401.087830,94.838333 
	C401.145660,94.451591 401.580109,94.093895 402.267578,93.599884 
	C402.520599,93.463577 402.770203,93.733574 402.880188,94.083725 
	C402.990204,94.433884 402.979858,94.857666 402.979858,94.857666 
z"/>
<path fill="#45D89E" opacity="1.000000" stroke="none" 
	d="
M406.823395,90.822510 
	C407.183716,90.399567 407.623016,90.062576 408.310944,89.598930 
	C408.559570,89.472282 408.784515,89.739143 408.683655,90.061295 
	C408.073608,90.617287 407.564453,90.851128 407.055298,91.084969 
	C407.055298,91.084969 406.902405,90.908463 406.823395,90.822510 
z"/>
<path fill="#36E2A1" opacity="1.000000" stroke="none" 
	d="
M145.271866,326.187317 
	C145.467773,325.959625 145.845184,326.125366 146.030853,326.219116 
	C145.978622,326.520966 145.719437,326.697845 145.218079,326.927063 
	C145.023468,326.812073 145.049713,326.613525 145.271866,326.187317 
z"/>
<path fill="#000201" opacity="1.000000" stroke="none" 
	d="
M283.325928,268.827850 
	C282.915070,269.672943 282.504211,270.518036 281.626892,271.763214 
	C270.498169,283.059387 258.125519,285.129181 244.222809,279.340576 
	C244.219452,279.360626 244.205460,279.329956 243.969162,279.168915 
	C242.906387,278.606232 242.079910,278.204590 241.222397,277.770935 
	C241.191360,277.738892 241.122070,277.795044 240.979828,277.496094 
	C237.242508,272.442780 233.647446,267.688385 230.054871,262.507935 
	C229.685562,259.808380 229.054214,257.542816 228.984146,255.260025 
	C228.531006,240.500397 235.725952,230.727570 249.421814,224.998276 
	C255.559814,224.990967 261.276215,224.999405 267.205688,225.287796 
	C271.274170,227.731262 275.129547,229.894791 278.984924,232.058304 
	C278.984924,232.058304 279.000732,231.998886 279.039429,232.265961 
	C279.384949,232.709763 279.691772,232.886490 279.998566,233.063202 
	C279.998566,233.063202 280.000488,233.000320 280.056335,233.348236 
	C288.777466,244.712036 289.606110,256.444794 283.325928,268.827850 
z"/>
<path fill="#1DF3A5" opacity="1.000000" stroke="none" 
	d="
M298.003906,161.176407 
	C301.769196,158.233826 305.535339,155.755493 309.617493,153.122742 
	C311.570465,154.430923 313.207367,155.893539 314.921936,157.678284 
	C314.999603,158.000412 315.003296,157.993820 315.003296,157.993820 
	C311.058502,159.014557 307.113678,160.035278 303.332916,161.013550 
	C302.775146,171.096039 299.167664,174.299698 289.186554,174.294907 
	C286.838043,174.293793 284.489380,174.670700 282.140778,174.873703 
	C282.012665,174.185196 281.884552,173.496689 281.756439,172.808182 
	C284.642456,172.263474 287.533295,171.242844 290.413574,171.271881 
	C296.644135,171.334747 297.995605,169.854462 298.003906,161.176407 
z"/>
<path fill="#45D89E" opacity="1.000000" stroke="none" 
	d="
M244.226166,279.320526 
	C258.125519,285.129181 270.498169,283.059387 281.468018,272.084412 
	C282.596588,273.887115 283.417542,275.768768 284.269348,277.721069 
	C284.157349,277.884003 283.898041,278.401825 283.806793,278.373749 
	C278.563293,276.759857 275.051056,279.459290 271.564270,282.871246 
	C268.849060,285.528168 265.847992,286.366974 261.682709,284.776917 
	C258.173584,283.437317 253.902847,284.092773 249.283127,283.602081 
	C247.140060,281.999573 245.683105,280.660034 244.226166,279.320526 
z"/>
<path fill="#45D89E" opacity="1.000000" stroke="none" 
	d="
M249.000214,225.014023 
	C235.725952,230.727570 228.531006,240.500397 228.984146,255.260025 
	C229.054214,257.542816 229.685562,259.808380 229.761261,262.517853 
	C229.076279,262.938110 228.687378,262.922424 228.298492,262.906769 
	C228.219574,262.484863 228.140671,262.062958 228.027634,260.859955 
	C227.713959,255.450241 227.434402,250.821625 227.154846,246.193008 
	C229.857117,241.438141 232.949356,236.856323 235.156937,231.881912 
	C237.583420,226.414307 242.845337,226.670044 247.769104,224.862091 
	C248.621124,224.938461 248.810669,224.976242 249.000214,225.014023 
z"/>
<path fill="#1DF3A5" opacity="1.000000" stroke="none" 
	d="
M144.989624,369.010498 
	C146.575775,369.347443 148.650192,369.165741 149.659225,370.115692 
	C153.093826,373.349121 156.132843,373.809021 159.541367,370.197296 
	C160.199051,369.500397 161.534561,369.443115 163.388947,368.804352 
	C162.107330,371.374268 161.223312,373.146912 160.339310,374.919525 
	C160.102188,374.679169 159.865082,374.438812 159.627960,374.198486 
	C155.849350,376.482422 152.070740,378.766357 148.915100,380.673767 
	C147.570892,376.449982 146.479736,373.021362 145.194290,369.296387 
	C145.000000,369.000000 144.989624,369.010529 144.989624,369.010498 
z"/>
<path fill="#1DF3A5" opacity="1.000000" stroke="none" 
	d="
M147.444458,335.957733 
	C145.250916,334.728699 145.329529,334.781616 146.496506,333.047638 
	C150.265900,327.446747 153.972168,321.803345 158.042923,315.663300 
	C158.744751,316.484741 159.867889,317.799347 160.288376,318.291504 
	C158.385529,321.346100 155.931580,323.540680 155.771790,325.891235 
	C155.394913,331.435211 152.445694,334.157532 147.444458,335.957733 
z"/>
<path fill="#1DF3A5" opacity="1.000000" stroke="none" 
	d="
M244.222809,279.340576 
	C245.683105,280.660034 247.140060,281.999573 248.823425,283.608704 
	C244.544968,286.608795 237.957291,286.920654 235.159775,284.372406 
	C232.543961,281.989655 231.271866,279.344147 235.040115,276.438416 
	C237.409195,276.902740 239.265625,277.348907 241.122070,277.795044 
	C241.122070,277.795044 241.191360,277.738892 241.115509,278.057007 
	C241.019440,282.259247 242.732574,280.396332 244.205460,279.329956 
	C244.205460,279.329956 244.219452,279.360626 244.222809,279.340576 
z"/>
<path fill="#45D89E" opacity="1.000000" stroke="none" 
	d="
M283.672089,268.846771 
	C289.606110,256.444794 288.777466,244.712036 280.025696,233.355316 
	C285.447601,234.690811 287.695709,238.975845 287.870361,244.165604 
	C288.099670,250.979568 287.849640,257.830780 287.344910,264.631775 
	C287.234650,266.117218 285.178314,267.458191 283.672089,268.846771 
z"/>
<path fill="#36E2A1" opacity="1.000000" stroke="none" 
	d="
M240.979828,277.496094 
	C239.265625,277.348907 237.409195,276.902740 235.276459,276.216553 
	C233.920975,274.342010 232.841797,272.707489 231.369598,270.897400 
	C230.976578,270.721832 230.676849,270.787537 230.676849,270.787537 
	C230.676849,270.787537 230.883942,271.095673 230.883942,271.095673 
	C230.739777,272.513580 230.595612,273.931488 230.440750,275.454590 
	C226.408371,274.135620 225.764374,270.192413 228.171234,263.255249 
	C228.687378,262.922424 229.076279,262.938110 229.758774,262.943909 
	C233.647446,267.688385 237.242508,272.442780 240.979828,277.496094 
z"/>
<path fill="#1DF3A5" opacity="1.000000" stroke="none" 
	d="
M271.143921,211.630890 
	C271.591217,212.604279 272.135712,214.262238 271.832306,214.435532 
	C266.898621,217.253204 261.945007,219.972717 256.075256,216.466232 
	C254.313644,215.413879 252.085266,215.142883 249.968246,213.336838 
	C251.869949,213.026810 254.589462,211.756317 255.538925,212.564713 
	C261.145630,217.338486 265.927582,214.576797 271.143921,211.630890 
z"/>
<path fill="#25F3A6" opacity="1.000000" stroke="none" 
	d="
M361.964020,192.707214 
	C361.959625,193.070251 361.573914,193.075287 361.383728,193.061584 
	C358.563599,193.145569 356.901184,192.488983 358.052216,189.325790 
	C358.500336,188.094406 358.768066,186.777832 358.961578,185.476807 
	C359.721649,180.366577 360.301025,179.920822 365.526062,180.537430 
	C364.343750,184.461166 363.156067,188.402664 361.964020,192.707214 
z"/>
<path fill="#25F3A6" opacity="1.000000" stroke="none" 
	d="
M166.226288,294.015259 
	C166.390793,293.338684 166.880280,292.794952 167.583252,292.081848 
	C169.350876,292.016693 170.905045,292.120911 172.513687,292.228790 
	C176.415314,298.662750 175.619263,302.917603 169.034409,304.817963 
	C173.821609,299.350311 170.165176,296.756653 166.226288,294.015259 
z"/>
<path fill="#36E2A1" opacity="1.000000" stroke="none" 
	d="
M249.421814,224.998276 
	C248.810669,224.976242 248.621124,224.938461 248.148193,224.837921 
	C250.055267,223.389404 252.330719,220.737656 254.418716,220.877869 
	C258.957428,221.182632 263.400452,222.912170 267.734589,224.470154 
	C267.388580,224.923279 267.190582,224.965576 266.992615,225.007843 
	C261.276215,224.999405 255.559814,224.990967 249.421814,224.998276 
z"/>
<path fill="#1DF3A5" opacity="1.000000" stroke="none" 
	d="
M393.006134,140.925842 
	C392.304626,142.767975 391.513306,144.244934 390.422638,145.879456 
	C384.969513,142.134232 384.897461,138.711823 390.229797,134.901138 
	C391.139099,136.816696 392.027710,138.688675 393.006134,140.925842 
z"/>
<path fill="#1DF3A5" opacity="1.000000" stroke="none" 
	d="
M252.973755,187.912415 
	C254.011688,186.550888 255.217346,185.429306 256.691345,184.133484 
	C257.238037,186.347504 258.004761,187.373825 260.442596,185.635605 
	C262.173798,184.401199 264.200134,183.580750 266.306854,182.991669 
	C260.201019,191.331299 257.337280,192.336884 252.973755,187.912415 
z"/>
<path fill="#1DF3A5" opacity="1.000000" stroke="none" 
	d="
M101.741959,404.884338 
	C101.741966,404.884338 101.850304,404.400208 102.187317,404.161743 
	C102.888245,403.920380 103.252159,403.917480 103.961624,403.841125 
	C104.856804,402.826996 105.406441,401.886353 105.956078,400.945679 
	C105.956070,400.945679 105.909920,400.928558 105.899887,400.905151 
	C107.188210,401.015320 108.486557,401.148895 109.780006,401.281952 
	C108.862038,405.102081 108.006706,408.661591 106.916985,413.196472 
	C104.961151,410.456909 103.706131,408.698975 102.137177,406.498535 
	C101.796158,405.665436 101.769058,405.274902 101.741959,404.884338 
z"/>
<path fill="#25F3A6" opacity="1.000000" stroke="none" 
	d="
M350.981323,212.745667 
	C350.285645,214.299744 349.554291,215.555832 348.534180,216.927277 
	C345.492371,215.452332 342.739319,213.862061 339.879272,212.209976 
	C341.064209,208.728699 341.064209,208.728699 348.036224,214.249771 
	C348.172546,213.155899 348.255402,212.325775 348.384735,211.502960 
	C348.498535,210.778625 348.664368,210.062439 349.723541,209.190292 
	C350.130920,210.276093 350.538269,211.361893 350.981323,212.745667 
z"/>
<path fill="#1DF3A5" opacity="1.000000" stroke="none" 
	d="
M183.997665,355.002625 
	C186.928879,355.932220 189.860092,356.861816 193.316650,357.958008 
	C191.816742,360.486053 190.954590,361.939209 190.067307,363.746277 
	C190.042175,364.100220 190.011139,364.030762 190.045807,364.045898 
	C184.574570,363.767181 186.154907,358.456360 184.074860,355.342041 
	C184.000000,355.000000 183.997665,355.002625 183.997665,355.002625 
z"/>
<path fill="#1DF3A5" opacity="1.000000" stroke="none" 
	d="
M190.947281,253.181534 
	C190.936920,252.808548 190.876877,252.466156 190.845001,252.295731 
	C192.998001,252.520462 195.239365,252.729706 197.349594,253.370667 
	C198.985153,253.867462 200.456802,254.903931 202.389603,255.900772 
	C197.893738,257.077301 193.960388,258.106628 189.713287,259.218048 
	C190.089737,257.504669 190.523682,255.529602 190.947281,253.181534 
z"/>
<path fill="#25F3A6" opacity="1.000000" stroke="none" 
	d="
M407.425018,112.505707 
	C406.452240,109.669495 405.554230,106.906487 405.272400,104.081993 
	C405.160156,102.957291 406.410919,101.696548 407.041138,100.497726 
	C407.917725,101.319748 409.603516,102.221825 409.531464,102.950012 
	C409.212067,106.178680 408.388214,109.357437 407.425018,112.505707 
z"/>
<path fill="#1DF3A5" opacity="1.000000" stroke="none" 
	d="
M418.265930,92.090225 
	C417.292419,95.517326 416.074036,98.820915 414.518555,103.038475 
	C412.758484,101.187584 411.620026,99.990356 410.117554,98.410324 
	C412.928436,96.118652 415.474731,94.042686 418.265930,92.090225 
z"/>
<path fill="#1DF3A5" opacity="1.000000" stroke="none" 
	d="
M222.003937,224.376190 
	C218.922607,223.095261 216.104721,221.593201 212.105453,219.461411 
	C214.225784,218.358704 216.014877,217.073959 216.289322,217.341721 
	C218.445480,219.445282 220.311768,221.845932 222.003937,224.376190 
z"/>
<path fill="#25F3A6" opacity="1.000000" stroke="none" 
	d="
M262.042572,305.802460 
	C263.770447,305.949371 265.185425,306.291382 266.600433,306.633392 
	C265.594543,307.467926 264.630066,308.359772 263.573242,309.123871 
	C261.883453,310.345612 260.132355,311.482483 257.772003,313.087036 
	C256.398102,308.717468 260.288391,308.003143 262.042572,305.802460 
z"/>
<path fill="#25F3A6" opacity="1.000000" stroke="none" 
	d="
M282.795227,283.784363 
	C284.619263,282.199188 286.196350,280.863708 287.971985,279.360107 
	C288.533966,284.492096 286.049286,287.443146 279.985779,288.443939 
	C281.038330,286.632599 281.793304,285.333344 282.795227,283.784363 
z"/>
<path fill="#36E2A1" opacity="1.000000" stroke="none" 
	d="
M226.878799,246.319397 
	C227.434402,250.821625 227.713959,255.450241 227.979736,260.541626 
	C222.690063,256.602997 225.723969,251.423492 226.878799,246.319397 
z"/>
<path fill="#1DF3A5" opacity="1.000000" stroke="none" 
	d="
M208.915619,243.628265 
	C208.950180,245.930481 208.950180,247.853149 208.950180,250.287659 
	C203.985718,248.555603 204.372925,244.865494 205.539398,242.194611 
	C206.769302,239.378448 208.187256,241.366135 208.915619,243.628265 
z"/>
<path fill="#25F3A6" opacity="1.000000" stroke="none" 
	d="
M226.613205,332.358521 
	C227.659698,331.548004 228.368652,330.767120 229.250061,330.397614 
	C230.375824,329.925659 231.640778,329.785736 232.845764,329.502747 
	C232.979538,330.387726 233.504120,331.839996 233.181412,332.062347 
	C231.535217,333.196411 229.696625,334.078766 227.835815,334.826355 
	C227.670105,334.892944 226.862015,333.360626 226.613205,332.358521 
z"/>
<path fill="#1DF3A5" opacity="1.000000" stroke="none" 
	d="
M341.114624,217.970032 
	C340.315186,222.148560 339.309753,226.100891 338.347504,229.883530 
	C335.717590,226.148392 336.922913,219.910233 341.114624,217.970032 
z"/>
<path fill="#25F3A6" opacity="1.000000" stroke="none" 
	d="
M344.505493,137.857910 
	C346.960358,136.328415 349.436859,135.139816 352.655273,133.595139 
	C350.648132,139.546341 348.167328,140.627655 344.505493,137.857910 
z"/>
<path fill="#1DF3A5" opacity="1.000000" stroke="none" 
	d="
M145.005249,368.994812 
	C142.991608,368.313812 139.015594,370.710144 139.730988,365.882172 
	C139.875839,364.904663 141.839630,364.196747 142.964859,363.364563 
	C143.638763,364.974976 144.312668,366.585388 144.988098,368.603149 
	C144.989624,369.010529 145.000000,369.000000 145.005249,368.994812 
z"/>
<path fill="#1DF3A5" opacity="1.000000" stroke="none" 
	d="
M218.049866,209.359604 
	C217.967773,209.006577 218.395050,208.954636 218.608429,208.948303 
	C220.984894,210.861816 223.147980,212.781647 225.311066,214.701492 
	C224.932358,215.121918 224.553650,215.542343 224.174942,215.962769 
	C220.263214,215.840561 218.943100,213.039627 218.049866,209.359604 
z"/>
<path fill="#25F3A6" opacity="1.000000" stroke="none" 
	d="
M313.827087,262.661072 
	C315.031433,261.087860 316.129272,259.826508 317.227112,258.565186 
	C317.787628,258.821320 318.348145,259.077454 318.908691,259.333618 
	C318.334015,261.022888 317.759338,262.712189 317.184662,264.401459 
	C316.029968,263.925262 314.875244,263.449097 313.827087,262.661072 
z"/>
<path fill="#25F3A6" opacity="1.000000" stroke="none" 
	d="
M201.134140,233.300262 
	C201.473648,232.941727 201.864380,232.949051 202.545746,232.965881 
	C207.554794,233.842056 207.771866,234.594421 203.771912,239.382843 
	C202.786606,237.205185 201.985977,235.435669 201.134140,233.300262 
z"/>
<path fill="#45D89E" opacity="1.000000" stroke="none" 
	d="
M267.205688,225.287811 
	C267.190582,224.965576 267.388580,224.923279 267.882019,224.806763 
	C272.698120,225.417664 276.901672,226.619614 278.965271,231.699493 
	C275.129547,229.894791 271.274170,227.731262 267.205688,225.287811 
z"/>
<path fill="#1DF3A5" opacity="1.000000" stroke="none" 
	d="
M394.063049,103.351784 
	C394.725555,102.983528 395.456818,102.973091 396.551575,102.964813 
	C398.058228,103.537613 399.201447,104.108269 401.303986,105.157768 
	C399.461670,106.280449 397.724396,107.906662 397.159241,107.569305 
	C395.848999,106.787178 395.105255,105.056015 394.063049,103.351784 
z"/>
<path fill="#36E2A1" opacity="1.000000" stroke="none" 
	d="
M406.848572,91.265991 
	C407.564453,90.851128 408.073608,90.617287 408.794006,90.196457 
	C409.005249,90.009468 409.486237,89.992836 409.726624,89.991920 
	C409.875336,94.871758 407.725189,96.616188 403.183960,95.093124 
	C402.979858,94.857666 402.990204,94.433884 403.001038,94.222290 
	C403.644196,93.578979 404.276489,93.147270 405.041565,92.450577 
	C405.663483,91.939407 406.152649,91.693207 406.848572,91.265991 
z"/>
<path fill="#25F3A6" opacity="1.000000" stroke="none" 
	d="
M276.088837,282.245117 
	C279.088440,281.064392 279.389160,282.527069 278.184326,284.358734 
	C277.158813,285.917877 275.463654,287.036499 274.064758,288.350037 
	C273.705627,288.106537 273.346497,287.863068 272.987366,287.619598 
	C273.951080,285.910950 274.914825,284.202301 276.088837,282.245117 
z"/>
<path fill="#25F3A6" opacity="1.000000" stroke="none" 
	d="
M360.757141,195.093323 
	C360.234253,196.895767 359.414337,198.774002 358.313507,200.849213 
	C357.041168,199.261414 356.049774,197.476654 355.029297,195.345963 
	C355.000214,195.000046 354.987671,195.014709 354.987671,195.014709 
	C356.811829,195.066162 358.635986,195.117630 360.757141,195.093323 
z"/>
<path fill="#25F3A6" opacity="1.000000" stroke="none" 
	d="
M234.986603,201.011383 
	C237.872925,200.990082 240.311325,201.520737 240.640686,204.650284 
	C240.241089,205.107056 239.841507,205.563828 239.441910,206.020599 
	C238.015396,204.564896 236.588898,203.109192 235.081055,201.326874 
	C234.999710,201.000275 234.986603,201.011383 234.986603,201.011383 
z"/>
<path fill="#1DF3A5" opacity="1.000000" stroke="none" 
	d="
M270.931458,176.976227 
	C271.458832,177.956345 272.001740,178.966812 272.544678,179.977280 
	C271.126587,180.676285 269.708496,181.375305 268.290436,182.074310 
	C268.019165,181.668045 267.747925,181.261780 267.476654,180.855530 
	C268.527679,179.740143 269.578674,178.624771 270.798340,177.228149 
	C270.966980,176.946915 270.946991,177.006577 270.931458,176.976227 
z"/>
<path fill="#25F3A6" opacity="1.000000" stroke="none" 
	d="
M231.289780,200.120270 
	C233.411942,198.661682 235.857513,197.339828 238.664139,195.997650 
	C237.748245,197.448624 236.471329,198.919952 235.090515,200.701324 
	C234.986603,201.011383 234.999710,201.000275 235.005844,200.994293 
	C233.879059,200.744537 232.746124,200.500763 231.289780,200.120270 
z"/>
<path fill="#25F3A6" opacity="1.000000" stroke="none" 
	d="
M208.986267,224.988571 
	C209.291504,223.787735 209.596725,222.586884 209.901947,221.386047 
	C210.512985,221.655273 211.124023,221.924484 211.735077,222.193710 
	C211.057983,223.109573 210.380905,224.025436 209.351807,224.970657 
	C208.999786,225.000000 208.986282,224.988571 208.986267,224.988571 
z"/>
<path fill="#25F3A6" opacity="1.000000" stroke="none" 
	d="
M209.005997,225.006104 
	C208.927902,226.608109 208.843597,228.204025 208.759277,229.799927 
	C208.227448,229.745453 207.695602,229.690964 207.163773,229.636475 
	C207.561508,228.181198 207.959244,226.725922 208.671631,225.129608 
	C208.986282,224.988571 208.999786,225.000000 209.005997,225.006104 
z"/>
<path fill="#1DF3A5" opacity="1.000000" stroke="none" 
	d="
M184.001526,354.998322 
	C182.191772,354.687622 180.380493,354.378571 178.569229,354.069519 
	C178.683075,353.613007 178.796936,353.156494 178.910797,352.699982 
	C180.511520,353.256348 182.112244,353.812744 183.855316,354.685883 
	C183.997665,355.002625 184.000000,355.000000 184.001526,354.998322 
z"/>
<path fill="#25F3A6" opacity="1.000000" stroke="none" 
	d="
M228.003662,202.530716 
	C228.384323,201.945480 228.916031,201.600922 229.725494,201.108170 
	C230.047287,201.774994 230.091278,202.590012 230.135284,203.405045 
	C229.475098,203.193832 228.814896,202.982620 228.003662,202.530716 
z"/>
<path fill="#1DF3A5" opacity="1.000000" stroke="none" 
	d="
M401.435638,101.298691 
	C401.842529,101.149109 402.197174,101.199356 402.551819,101.249603 
	C402.474518,101.522614 402.397247,101.795624 402.319946,102.068634 
	C402.007751,101.878601 401.695587,101.688560 401.435638,101.298691 
z"/>
<path fill="#25F3A6" opacity="1.000000" stroke="none" 
	d="
M355.007507,194.993683 
	C354.623779,194.764328 354.225494,194.552261 353.851410,194.303833 
	C353.807068,194.274399 353.894897,194.045975 353.921509,193.909790 
	C354.237061,194.135040 354.552582,194.360291 354.927917,194.800140 
	C354.987671,195.014709 355.000214,195.000046 355.007507,194.993683 
z"/>
<path fill="#1DF3A5" opacity="1.000000" stroke="none" 
	d="
M314.995850,158.004150 
	C315.526581,158.073273 316.061127,158.138657 316.595642,158.204025 
	C316.551208,158.358322 316.506775,158.512619 316.462341,158.666931 
	C316.083679,158.544571 315.705048,158.422211 315.164856,158.146851 
	C315.003296,157.993820 314.999603,158.000412 314.995850,158.004150 
z"/>
<path fill="#36E2A1" opacity="1.000000" stroke="none" 
	d="
M101.457520,404.912018 
	C101.769058,405.274902 101.796158,405.665436 101.803055,406.341156 
	C101.342438,406.468384 100.902023,406.310455 100.234116,406.079041 
	C100.006615,406.005585 100.010193,405.516144 100.019073,405.271881 
	C100.409668,404.998322 100.791382,404.968994 101.457520,404.912018 
z"/>
<path fill="#1DF3A5" opacity="1.000000" stroke="none" 
	d="
M112.568146,396.798584 
	C112.445625,396.627136 112.432205,396.405273 112.418777,396.183380 
	C112.504936,396.371643 112.591095,396.559875 112.568146,396.798584 
z"/>
<path fill="#45D89E" opacity="1.000000" stroke="none" 
	d="
M318.983795,148.013092 
	C319.191071,148.154633 319.407104,148.288940 319.623169,148.423264 
	C319.485748,148.337204 319.348358,148.251160 319.106262,148.076721 
	C319.001587,147.988327 318.992584,148.005859 318.983795,148.013092 
z"/>
<path fill="#36E2A1" opacity="1.000000" stroke="none" 
	d="
M412.976440,88.259514 
	C413.033447,88.155350 413.244690,88.134987 413.774597,88.108887 
	C413.772430,88.183205 413.451538,88.263268 412.976440,88.259514 
z"/>
<path fill="#1DF3A5" opacity="1.000000" stroke="none" 
	d="
M110.494072,398.507874 
	C110.484581,398.484924 110.503563,398.530792 110.494072,398.507874 
z"/>
<path fill="#1DF3A5" opacity="1.000000" stroke="none" 
	d="
M112.505997,399.491577 
	C112.515121,399.514709 112.496880,399.468445 112.505997,399.491577 
z"/>
<path fill="#45D89E" opacity="1.000000" stroke="none" 
	d="
M279.902893,232.815948 
	C279.691772,232.886490 279.384949,232.709763 279.008728,232.266815 
	C279.228577,232.189941 279.517914,232.379318 279.902893,232.815948 
z"/>
<path fill="#36E2A1" opacity="1.000000" stroke="none" 
	d="
M257.995728,318.991882 
	C257.990845,318.984436 257.919952,319.063019 257.967712,319.036102 
	C258.015442,319.009186 258.000610,318.999298 257.995728,318.991882 
z"/>
<path fill="#45D89E" opacity="1.000000" stroke="none" 
	d="
M288.491455,268.494812 
	C288.496277,268.510803 288.486633,268.478851 288.491455,268.494812 
z"/>
<path fill="#02F5A6" opacity="1.000000" stroke="none" 
	d="
M105.606720,400.914795 
	C105.406441,401.886353 104.856804,402.826996 103.911171,403.561798 
	C103.398483,402.602448 103.281792,401.848907 103.165100,401.095398 
	C103.862518,401.024902 104.559937,400.954407 105.606720,400.914795 
z"/>
<path fill="#36E2A1" opacity="1.000000" stroke="none" 
	d="
M102.925827,401.307800 
	C103.281792,401.848907 103.398483,402.602448 103.565628,403.635254 
	C103.252159,403.917480 102.888245,403.920380 102.247627,403.921143 
	C102.209473,403.119385 102.448013,402.319763 102.925827,401.307800 
z"/>
<path fill="#02F5A6" opacity="1.000000" stroke="none" 
	d="
M228.054016,339.074829 
	C228.119003,339.142303 227.765762,339.388336 227.765762,339.388336 
	C227.765762,339.388336 227.693268,339.035248 227.773468,338.956573 
	C227.853653,338.877899 227.989029,339.007385 228.054016,339.074829 
z"/>
<path fill="#45D89E" opacity="1.000000" stroke="none" 
	d="
M243.969162,279.168915 
	C242.732574,280.396332 241.019440,282.259247 241.146545,278.089050 
	C242.079910,278.204590 242.906387,278.606232 243.969162,279.168915 
z"/>
<path fill="#02F5A6" opacity="1.000000" stroke="none" 
	d="
M230.944885,271.035828 
	C230.883942,271.095673 230.676849,270.787537 230.676849,270.787537 
	C230.676849,270.787537 230.976578,270.721832 231.049286,270.786194 
	C231.121979,270.850586 231.005844,270.975952 230.944885,271.035828 
z"/>
</svg>